<svg width="32" height="32" viewBox="0 0 32 32" fill="none" xmlns="http://www.w3.org/2000/svg">
<path d="M16 0L30 8V24L16 32L2 24V8L16 0Z" fill="black"/>
<path d="M22.9331 6V11.9632H20.0599V6H17.993V17.7848L19.7169 20.1807L18.9964 20.9136L15.1048 15.4221L17.0345 13.5642V9.13773H10.9495L11.1575 13.3406L12.4461 15.1608L10.0961 17.4216V20.3822H9.06694V8.1457H17.0088V6.01107H7V22.5168H10.0961V26H16.6357L18.7113 24.0027L20.2636 25.9203L22.9331 25.9004V25.9048H25V6H22.9331ZM15.0362 11.1971V12.6652L13.9148 13.7436L13.1172 12.6187L13.0465 11.1971H15.0362ZM15.851 23.9384H12.0923V22.5146H16.4513L15.0598 20.38H12.0923V18.3162L13.6318 16.8326L17.5234 22.3242L15.851 23.9384ZM20.0599 14.0979H22.9331V16.9145L20.0599 19.8308V14.0979ZM20.1821 22.5877L22.9331 19.7998V25.7852L20.1821 22.5877Z" fill="white"/>
</svg>
